<svg version="1.1" id="Capa_1" xmlns="http://www.w3.org/2000/svg" x="0" y="0" viewBox="0 0 495.829 495.829" xml:space="preserve"><circle cx="195.491" cy="211.454" r="195.491" fill="#f16051"/><path d="M162.133 472.884h326.594V140.86L162.133 472.884zm261.431-65.939H318.836L424.339 299.89v107.055h-.775z" fill="#fff"/><path d="M489.503 479.866h-327.37c-3.103 0-5.43-1.552-6.982-4.655-.776-2.327-.776-5.43 1.552-7.758L483.297 135.43c2.327-2.327 5.43-2.327 7.758-1.552 2.327.776 4.655 3.879 4.655 6.982v332.024c.775 3.879-2.328 6.982-6.207 6.982zM179.2 465.127h302.545v-307.2L179.2 465.127zm244.364-50.425H318.836c-3.103 0-5.43-1.552-6.982-4.655-.776-2.327-.776-5.43 1.552-7.758l105.503-107.055c2.327-2.327 5.43-2.327 7.758-1.552 2.327.776 4.655 3.879 4.655 6.982V407.72c-.001 3.103-3.104 6.982-7.758 6.982zm-87.661-14.739h81.455v-82.23l-81.455 82.23z" fill="#193651"/><path d="M231.176 444.181L460.8 210.678v233.503H231.176z" fill="#e1e6e9"/><path d="M423.564 406.945H318.836L424.339 299.89v107.055h-.775z" fill="#fff"/><path d="M423.564 414.702H318.836c-3.103 0-5.43-1.552-6.982-4.655-.776-2.327-.776-5.43 1.552-7.758l105.503-107.055c2.327-2.327 5.43-2.327 7.758-1.552 2.327.776 4.655 3.879 4.655 6.982V407.72c-.001 3.103-3.104 6.982-7.758 6.982zm-87.661-14.739h81.455v-82.23l-81.455 82.23z" fill="#193651"/><path d="M244.364 74.145h-128c-13.188 0-24.048 10.861-24.048 24.048V340.23c0 13.188 10.861 24.048 24.048 24.048H301.77c13.188 0 24.048-10.861 24.048-24.048V155.6l-81.454-81.455z" fill="#fff"/><path d="M301.77 371.26H116.364c-17.067 0-31.03-13.964-31.03-31.03V98.193c0-17.067 13.964-31.03 31.03-31.03h128c1.552 0 3.879.776 5.43 2.327l81.455 81.455c1.552 1.552 2.327 3.103 2.327 5.43v184.63c-.776 16.291-14.74 30.255-31.806 30.255zM116.364 81.127c-9.309 0-16.291 7.758-16.291 16.291v242.036c0 9.309 7.758 16.291 16.291 16.291H301.77c9.309 0 16.291-7.758 16.291-16.291V158.702l-77.576-77.576H116.364z" fill="#193651"/><path d="M243.588 81.902v54.303c0 12.412 10.085 22.497 22.497 22.497h53.527l-76.024-76.8z" fill="#4fbf9f"/><g fill="#193651"><path d="M166.788 272.739c-1.552 0-3.879-.776-5.43-2.327l-27.927-27.927c-3.103-3.103-3.103-6.982 0-10.085 3.103-3.103 6.982-3.103 10.085 0l20.945 20.945 24.824-45.77c1.552-2.327 3.879-3.879 6.206-3.879h84.558a6.953 6.953 0 016.982 6.982 6.953 6.953 0 01-6.982 6.982h-79.903l-27.152 50.424c-.776 2.327-3.103 3.103-5.43 3.879l-.776.776z"/><path d="M240.485 271.187l-28.703-28.703c-3.103-3.103-3.103-6.982 0-10.085s6.982-3.103 10.085 0l28.703 28.703c3.103 3.103 3.103 6.982 0 10.085-3.103 3.103-7.758 3.103-10.085 0z"/><path d="M211.782 271.187c-3.103-3.103-3.103-6.982 0-10.085l28.703-28.703c3.103-3.103 6.982-3.103 10.085 0 3.103 3.103 3.103 6.982 0 10.085l-28.703 28.703c-3.103 3.103-6.982 3.103-10.085 0zm-2.327-138.86h-90.764c-3.879 0-6.982-3.103-6.982-6.982s3.103-6.982 6.982-6.982h90.764c3.879 0 6.982 3.103 6.982 6.982s-3.104 6.982-6.982 6.982zm-34.134 35.684h-55.855a6.953 6.953 0 01-6.982-6.982 6.953 6.953 0 016.982-6.982h55.855a6.953 6.953 0 016.982 6.982 6.953 6.953 0 01-6.982 6.982z"/></g><path d="M162.909 313.078h14.739v14.739h-14.739zm38.788 0h14.739v14.739h-14.739zm39.564 0H256v14.739h-14.739z" fill="#193651"/></svg>